<?xml version="1.0" standalone="no"?>
<!DOCTYPE svg PUBLIC "-//W3C//DTD SVG 20010904//EN"
 "http://www.w3.org/TR/2001/REC-SVG-20010904/DTD/svg10.dtd">
<svg version="1.0" xmlns="http://www.w3.org/2000/svg"
 width="512.000000pt" height="512.000000pt" viewBox="0 0 512.000000 512.000000"
 preserveAspectRatio="xMidYMid meet">
<metadata>
Created by potrace 1.11, written by Peter Selinger 2001-2013
</metadata>
<g transform="translate(0.000000,512.000000) scale(0.100000,-0.100000)"
fill="#000000" stroke="none">
<path d="M84 2599 l1 -1762 615 0 c646 0 742 3 868 29 15 3 41 7 57 9 69 9
245 69 336 115 226 114 382 297 440 515 70 259 30 550 -101 740 -73 107 -206
218 -337 284 -58 29 -166 73 -178 72 -2 0 -20 6 -40 15 -19 8 -35 12 -35 9 0
-2 -12 0 -27 6 -15 6 -46 13 -68 16 -22 3 -49 9 -60 14 -19 7 -19 8 3 10 24 2
29 3 52 11 8 3 38 14 65 23 65 23 200 95 250 135 186 146 290 325 312 539 53
498 -216 845 -741 956 -108 23 -120 24 -762 25 l-652 1 2 -1762z"/>
<path d="M2480 4353 c0 -2 30 -51 68 -108 37 -58 72 -113 77 -123 6 -9 13 -19
16 -22 3 -3 12 -16 19 -29 7 -14 17 -30 22 -35 5 -6 70 -105 145 -221 74 -115
187 -288 249 -383 63 -95 114 -177 114 -182 0 -4 3 -10 8 -12 7 -3 75 -102 98
-143 19 -34 382 -589 393 -602 6 -7 11 -14 11 -17 0 -10 64 -96 71 -96 4 0 9
6 12 14 3 8 39 66 80 128 41 62 99 151 129 198 30 47 86 132 123 190 78 120
783 1210 868 1343 31 48 58 91 59 95 2 4 -574 7 -1279 8 -706 1 -1283 -1
-1283 -3z"/>
</g>
</svg>
