<svg id="Layer_1"
  xmlns="http://www.w3.org/2000/svg" viewBox="1 0 40 46" width="280" height="280">
  <style>.st0{fill:#006DAE}.st1{fill:#fff}</style>
  <path class="st0" d="M5.5 16.2c0 .8-.1 7.3 4 14 3.6 6.1 9.1 8.7 11.4 9.6 2.3-.8 7.8-3.5 11.4-9.6 4.1-6.7 4-13.2 4-14V.4H5.5v15.8z"/>
  <path class="st0" d="M38.1 23.6l-.1.5-.6 1.8-1.3-1.2-.2.5c-.7 2.1-1.6 4.1-2.7 5.8-2.9 4.6-7 8-11.8 9.8 0 0-.3.1-.5.2-.1-.1-.5-.2-.5-.2-4.8-1.8-8.8-5.2-11.7-9.8-1.1-1.8-2-3.7-2.7-5.8l-.2-.5-.4.3-.9.8c-.2-.6-.4-1.1-.6-1.8l-.1-.5-.4.4-3.3 3 .1.2c.8 2.5 2.1 5.1 3 6.9l.2.4 1.4-1.2c.1.1.1.2.2.3C8.4 39 13.3 43 19.1 45.1l2 .7L23 45c5.8-2.1 10.6-6.1 14-11.6.1-.1.1-.2.2-.3l1.4 1.2.2-.4c1-1.7 2.2-4.3 3-6.9l.1-.2-3.8-3.2z"/>
  <path class="st1" d="M33.7 7.3c0 .2-.1.4-.1.6 0 .1-.1.2-.2.3-.1.1-.3.1-.4.2v-.2c0-.2 0-.4.2-.6.1-.2.3-.4.6-.6-.1.2-.1.3-.1.3zM31.2 11.5c.3 0 .5 0 .8.1-.2.2-.4.3-.7.4-.3 0-.5 0-.8-.1.2-.2.4-.4.7-.4zM29.9 11.9c0-.3.1-.6.2-.8.1-.2.3-.4.6-.5v.1c0 .3-.1.5-.2.7-.1.3-.4.4-.6.5zM30.9 10.5c.1-.2.2-.3.4-.4 0 .1.1.2.1.4 0 .1 0 .3-.1.4-.1.2-.2.3-.3.5-.1 0-.1 0-.2.1.1-.4.1-.7.1-1zM31.5 9.8c.1-.2.2-.3.3-.5.1.2.2.5.2.7v.1c0 .2-.1.4-.2.5-.1 0-.1.1-.2.1 0-.3 0-.6-.1-.9zM31.9 9.1c0-.2.1-.4.1-.5.2.2.3.4.4.7v.2c0 .1 0 .3-.1.4l-.1.1c-.1-.4-.2-.7-.3-.9zM32.1 8.2v-.3c0-.1 0-.2.1-.3.2.2.4.3.5.6.1.2.1.3.1.5v.1c0 .1-.1.1-.1.2-.2-.3-.4-.6-.6-.8zM32.1 7.4c-.1-.2-.1-.4-.1-.6.3.1.5.2.6.5.1.2.2.3.2.5 0 .1 0 .1-.1.2-.1-.3-.3-.5-.6-.6zM32.7 6.9c-.2-.2-.5-.4-.8-.4-.1-.1-.2-.3-.2-.5.3 0 .5.1.7.3.1.1.3.3.3.5v.1zM32.4 6c-.2-.2-.5-.2-.8-.2-.2-.1-.3-.3-.4-.5.3 0 .5 0 .8.1.2.1.3.2.4.4V6zM31.8 11.3c-.1 0-.3-.1-.4-.1.2-.2.4-.4.6-.5.3-.1.5-.1.8-.1-.2.2-.4.4-.6.5-.1.2-.2.2-.4.2zM32.6 10.4h-.4c.1-.2.2-.5.5-.6.2-.2.5-.2.8-.2-.1.3-.3.5-.5.7-.2 0-.3.1-.4.1zM33.4 9.1c-.1.1-.2.2-.3.2-.1 0-.3.1-.4.1 0-.3.1-.5.3-.7.2-.2.4-.3.7-.4-.1.4-.1.6-.3.8zM33.5 6.4v.3c0 .1-.1.2-.2.4l-.3.3c-.1-.2-.1-.3-.1-.5v-.3c.1-.3.2-.5.4-.7.2.2.2.4.2.5zM32.6 5.6c0-.3.1-.5.3-.8.2.2.3.5.3.8 0 .1 0 .3-.1.4-.1.1-.2.2-.2.4-.2-.3-.3-.5-.3-.8zM32 3.9c.2.2.4.4.4.7V5c-.1.1-.1.3-.1.4-.1-.2-.3-.5-.3-.7v-.3c-.1-.2 0-.4 0-.5zM31.9 5.1c-.3-.1-.6-.1-.9-.1-.2-.1-.3-.2-.5-.4.3-.1.5-.1.8-.1.2 0 .4.1.5.3 0 .2.1.2.1.3zM31 3.1c.3.1.5.3.6.6.1.1.1.2.1.3v.4c-.2-.1-.4-.3-.6-.5 0-.1-.1-.3-.1-.6v-.2zM30.7 3.7c.1 0 .1 0 0 0 .1.2.1.3.2.4.1.1.1.2.2.3-.3 0-.5-.1-.7-.2-.2-.2-.4-.4-.5-.7.4-.1.6 0 .8.2z"/>
  <path class="st1" d="M27.1 9.5c.2 0 .3.1.3.3v.1c0 .1 0 .1.1.1h.4V4.9c0-.7.1-1.6.5-2.4l.1-.2.1.2c.3.8.4 1.7.4 2.4v5.2h.4c.1 0 .1-.1.1-.1v-.1c0-.2.1-.3.3-.3.2 0 .3.1.3.3 0 .2-.2.4-.6.4h-.7c.1.3.2.6.2 1 0 .5-.1.9-.2 1.2.5-.1.9-.2 1.3-.4l.1.2c-.3.2-.6.3-1 .4 0 0-.3.1-.5.1.1 0 .1.1.1.2 0 .2-.1.3-.3.3-.2 0-.3-.1-.3-.3 0-.1 0-.2.1-.2-.2 0-.5-.1-.5-.1-.4-.1-.7-.2-1-.4l.1-.2c.4.2.8.3 1.3.4-.2-.3-.2-.7-.2-1.2 0-.4.1-.7.2-1h-.7c-.4 0-.5-.2-.5-.4-.2-.2-.1-.4.1-.4zM26 11.3s0 .1 0 0h-.2c-.1-.1-.3-.3-.3-.5 0-.1-.1-.3-.1-.4 0-.1 0-.2.1-.4l.4.4c0 .4 0 .7.1.9zM25.3 5.7c-.3 0-.6.1-.8.2v-.2c.1-.2.3-.3.4-.4.2-.1.5-.2.8-.1-.1.2-.2.4-.4.5zM25.3 10.7c-.1 0-.1 0-.2-.1-.1-.2-.2-.3-.2-.5V10c0-.2.1-.4.2-.6.1.2.2.3.3.5-.2.2-.2.5-.1.8zM24.4 9.2c0-.3.2-.5.4-.7.1.2.2.4.2.6-.2.3-.3.5-.3.8l-.1-.1c0-.1-.1-.3-.1-.4-.1-.1-.1-.1-.1-.2zM24.3 8.9s-.1 0 0 0c-.1 0-.1-.1-.1-.2v-.1c0-.2 0-.3.1-.5s.3-.4.5-.6c0 .1.1.2.1.3v.3c-.4.3-.6.6-.6.8zM24.4 6.3c.2-.2.5-.3.8-.3-.1.2-.1.4-.2.5-.3.1-.6.2-.7.4v-.2c-.1-.1 0-.3.1-.4zM24.2 7.2c.1-.2.4-.4.6-.5 0 .2 0 .4-.1.6-.3.1-.5.4-.6.6 0-.1 0-.1-.1-.2 0-.1.1-.3.2-.5zM24.1 9.5c-.1-.1-.2-.1-.4-.1-.1-.1-.2-.1-.3-.2-.2-.2-.3-.5-.3-.8.3.1.5.2.7.4.2.2.3.5.3.7zM24.2 9.8c.2.2.4.4.5.6h-.4c-.1 0-.2-.1-.3-.2-.2-.2-.4-.4-.5-.7.2.1.5.2.7.3zM24.8 10.8c.2.1.4.3.6.5-.1 0-.3 0-.4.1-.1 0-.3 0-.4-.1-.3-.1-.5-.3-.6-.5.3-.2.6-.2.8 0zM25.6 11.5c.3 0 .5.2.7.4-.3.1-.5.2-.8.1-.3 0-.5-.2-.7-.4.3-.1.6-.1.8-.1z"/>
  <path class="st1" d="M26.3 11.4c-.1-.2-.2-.4-.2-.7v-.1c.3.1.5.3.6.5.1.2.2.4.2.7v.1c-.2-.1-.4-.2-.6-.5zM25.9 4c0-.1.1-.2.1-.3l.1-.1c.2-.2.5-.2.8-.2-.1.3-.3.5-.5.7-.2.1-.4.2-.7.2.1-.1.1-.2.2-.3zM25.2 3.7c.1-.3.3-.4.6-.6v.2c0 .2 0 .4-.1.6-.1.2-.3.4-.5.5V4c-.1-.1 0-.2 0-.3zM25 4.9c.1-.1.3-.2.5-.3.2-.1.5 0 .8.1-.1.1-.3.3-.4.3-.3 0-.6 0-.9.1v-.2zM24.4 4.6c.1-.3.2-.5.4-.7.1.2.1.3.1.5v.3c-.1.2-.2.5-.4.7 0-.1-.1-.3-.1-.4v-.1c-.1-.2-.1-.2 0-.3zM23.7 5.6c0-.3.1-.5.3-.8.2.2.3.5.3.8 0 .3-.1.5-.2.7l-.3-.3c0-.1-.1-.3-.1-.4zM23.4 5.9c.2.2.4.4.5.7v.3c0 .2 0 .3-.1.5l-.3-.3c-.1-.1-.1-.2-.2-.4v-.3c0-.1.1-.3.1-.5zM23.1 7.1c.3.1.5.3.6.6.1.2.1.4.1.6v.1c-.1-.1-.2-.2-.4-.2-.1-.1-.2-.2-.2-.3-.1-.2-.2-.4-.2-.6.1 0 .1-.1.1-.2z"/>
  <path class="st0" d="M28.7 4.9c0-.6-.1-1.3-.3-2v6.9h.3V4.9z"/>
  <g>
    <path class="st1" d="M15.8 10.5c.5.1 1.1.3 1.7.2V3.6v-.1c-.6 0-1.2-.1-1.8-.3-.5-.1-1-.2-1.4-.2-.6 0-.9.2-1.1.4v7.2c.3-.2.7-.3 1.1-.3.5-.1 1 .1 1.5.2zM11.7 10.3c.5 0 .8.1 1.1.3V3.4c-.2-.2-.5-.4-1.1-.4-.4 0-.9.1-1.4.2-.6.2-1.2.4-1.8.3V10.7c.6 0 1.1-.1 1.7-.2.5-.1 1-.3 1.5-.2z"/>
    <path class="st1" d="M18.4 3.7H18v7.7h-4.6c-.1.1-.2.2-.4.2s-.3 0-.4-.2H8V3.9 3.6h-.6v8.2h5c.1.2.3.4.6.4s.5-.2.6-.4h5V3.7h-.2z"/>
  </g>
  <g>
    <path class="st0" d="M14.3 4.8c-.3 0-.5 0-.7.1v.4c.2-.1.4-.1.7-.1.4 0 .9.1 1.4.2.4.1.9.2 1.3.3v-.4c-.4 0-.9-.1-1.3-.3-.4-.1-.9-.2-1.4-.2zM14.3 9c-.3 0-.5 0-.7.1v.4c.2-.1.4-.1.7-.1.4 0 .9.1 1.4.2.4.1.9.2 1.3.3v-.4c-.4 0-.9-.1-1.3-.2-.4-.2-.9-.4-1.4-.3zM14.3 8.1c-.3 0-.5 0-.7.1v.4c.2-.1.4-.1.7-.1.4 0 .9.1 1.4.2.4.1.9.2 1.3.3v-.4c-.4 0-.9-.1-1.3-.2-.4-.2-.9-.3-1.4-.3zM14.3 5.6c-.3 0-.5 0-.7.1v.4c.2-.1.4-.1.7-.1.4 0 .9.1 1.4.2.4.1.9.2 1.3.3v-.4c-.4 0-.9-.1-1.3-.2-.4-.2-.9-.3-1.4-.3zM14.3 7.3c-.3 0-.5 0-.7.1v.4c.2-.1.4-.1.7-.1.4 0 .9.1 1.4.2.4.1.9.2 1.3.3v-.4c-.4 0-.9-.1-1.3-.2-.4-.2-.9-.3-1.4-.3zM15.8 4.2c-.5-.1-1-.3-1.5-.2-.3 0-.5 0-.7.1v.4c.2-.1.4-.1.7-.1.4 0 .9.1 1.4.2.4.1.9.2 1.3.3v-.5c-.4 0-.8-.1-1.2-.2zM10.2 8.4c-.4.1-.8.2-1.2.2V9c.5 0 .9-.1 1.3-.3.5-.1 1-.2 1.4-.2.3 0 .5.1.7.1v-.4c-.2-.1-.4-.1-.7-.1-.5 0-.9.1-1.5.3zM10.2 7.5L9 7.8v.3c.5 0 .9-.1 1.4-.3.5-.1 1-.2 1.4-.2.3 0 .5.1.7.1v-.3c-.2-.1-.4-.1-.7-.1-.6 0-1 .1-1.6.2zM14.3 6.4c-.3 0-.5 0-.7.1v.4c.2-.1.4-.1.7-.1.4 0 .9.1 1.4.2.4.1.9.2 1.3.2v-.3c-.4 0-.9-.1-1.3-.3-.4 0-.9-.2-1.4-.2zM10.2 9.2L9 9.5v.3c.5 0 .9-.1 1.3-.3.5-.1 1-.2 1.4-.2.3 0 .5.1.7.1v-.3c-.2-.1-.4-.1-.7-.1-.5-.1-.9.1-1.5.2zM10.2 4.2c-.4.1-.8.2-1.2.2v.3c.5 0 .9-.1 1.3-.3.5-.1 1-.2 1.4-.2.3 0 .5.1.7.1V4c-.2 0-.4-.1-.7-.1-.5 0-1 .1-1.5.3zM10.2 5L9 5.3v.3c.5 0 .9-.1 1.3-.3.5-.1 1-.2 1.4-.2.3 0 .5.1.7.1v-.3c-.2-.1-.4-.1-.7-.1-.5 0-1 .1-1.5.2zM10.2 6.7c-.4.1-.8.2-1.2.2v.3c.5 0 .9-.1 1.3-.2.5-.1 1-.2 1.4-.2.3 0 .5.1.7.1v-.3c-.2-.1-.4-.1-.7-.1-.5-.1-.9.1-1.5.2zM10.2 5.9c-.4.1-.8.2-1.2.2v.3c.5 0 .9-.1 1.4-.3.5-.1 1-.2 1.4-.2.2.1.4.1.6.2v-.4c-.2-.1-.4-.1-.7-.1-.5 0-.9.1-1.5.3z"/>
  </g>
  <path class="st1" d="M16.7 29.2l-.1 1.1-.8-.7-.9.7v-1.1l-1-.3.8-.6-.4-1 1 .2.5-.9.5.9 1-.2-.4 1 .8.6zM22.5 36.7l-1.1-.4-.5 1-.4-1-1.1.4.4-1.1-1-.5 1-.4-.4-1.1 1.1.4.4-1 .5 1 1.1-.4-.4 1.1 1 .4-1 .5zM19.4 22.4l1 .3.5-1 .5 1 1-.3-.4 1 .8.7-1 .2v1.1l-.9-.6-.8.6v-1.1l-1.1-.2.8-.7zM23.6 31l-.8-.4-.8.4.1-.9-.6-.6.9-.2.4-.8.4.8.9.2-.6.6zM27 27.7h-1l-.4.8-.5-.8h-.9l.4-.8-.4-.8h.9l.5-.8.4.8h1l-.5.8z"/>
  <path class="st1" d="M20.9 17.8l11.7 10.5c.8-1.5 1.3-2.9 1.8-4.3L20.9 11.9 7.4 24c.4 1.4 1 2.8 1.8 4.3l11.7-10.5zM39.1 31.9l.6-3.9-1.8-1.6c.2-.5.4-1 .5-1.6.5.5 2.4 2.1 2.6 2.4-.5 1.6-1.2 3.2-1.9 4.7zM38.2 33.2c-.2-.2-.4-.4-.7-.6.4-.7.8-1.4 1.1-2.2l-.4 2.8zM.8 27.1c.3-.2 2.1-1.9 2.6-2.4.2.5.3 1 .5 1.5l-1.8 1.6.6 3.9C2 30.4 1.3 28.8.8 27.1zM3.6 33.2l-.4-2.8c.3.7.7 1.5 1.2 2.2-.3.2-.6.4-.8.6z"/>
  <path class="st1" d="M36.4 33c-3.4 5.4-8.1 9.3-13.7 11.3 0 0-1.6.6-1.8.7-.2-.1-1.8-.7-1.8-.7-5.6-2.1-10.4-6-13.7-11.3-1-1.5-1.8-3.2-2.5-4.9.3-.3 2-1.8 2.6-2.3.7 2 1.6 3.8 2.6 5.5 3 4.7 7.2 8.2 12.1 10l.7.3.7-.3c4.9-1.8 9.1-5.3 12.1-10 1.1-1.7 1.9-3.6 2.6-5.5.5.5 2.3 2 2.6 2.3-.7 1.8-1.5 3.4-2.5 4.9z"/>
  <path class="st0" d="M6.5 31.3l.5-.6v-.2l-.3-.3c-.6.1-1.4.2-1.8.3l-.1-.1-.1.1c.1.1.1.2.2.3-.1 0 0 .1.1.2l.1-.1v-.2l.6-.1.3.5-.4.4-.1-.1-.1.1c.1.1.2.3.2.4.1.1.1.3.2.4l.1-.1-.1-.2c.1 0 .4-.4.7-.7zm-.7-.7l.7-.2-.4.6-.3-.4zM9.1 34h.1c-.1-.1-.2-.2-.2-.3-.1-.1-.1-.2-.2-.3l-.1.1.1.2c-.3.2-1 .7-1 .7.2-.5.4-1 .6-1.6-.1-.1-.1-.2-.2-.3-.1 0-.2-.1-.2-.2l-.1.1.1.1c-.1.1-.3.2-.4.3l-.5.3c-.2.1-.3.2-.4.3l-.1-.1-.1.1c.1.1.1.2.2.3.1.1.1.2.2.3l.1-.1-.1-.2c.3-.2.7-.5 1-.7-.2.5-.4 1-.6 1.6 0 .1.1.1.1.2s.1.1.1.2c.1-.1.3-.3.6-.4l.4-.3c.2-.1.3-.2.5-.3h.1zM9.2 35.6c-.5.4-.4 1 0 1.4.2.3.5.4 1 .5v-.2c-.3 0-.4-.1-.6-.3-.3-.3-.3-.7 0-1 .3-.3.7-.2.9 0 .1.1.2.3.2.4l-.1.1.1.1c.1-.1.3-.2.4-.2-.1-.2-.2-.4-.4-.6-.4-.6-1-.7-1.5-.2zM13 37.8c-.5-.5-1.2-.4-1.5.1-.4.5-.3 1 .2 1.5.6.5 1.2.4 1.5-.1.4-.5.3-1-.2-1.5zm-.2 1.2c-.3.3-.7.4-.9.2-.3-.2-.3-.6 0-.9.3-.3.7-.4.9-.2.3.2.2.6 0 .9zM15.8 39.9c-.1-.1-.2-.1-.4-.2-.1-.1-.2-.1-.4-.2-.1-.1-.2-.1-.3-.2l-.1.1.1.1c-.1.1-.2.3-.3.5l-.3.5c-.1.2-.2.3-.3.4l-.2-.1-.1.1c.1.1.3.2.4.2.1.1.2.2.4.2l.1-.1-.1-.1c.1-.2.1-.3.3-.5l.1-.1.1.1c0 .3.1.8.1 1.1.2.1.4.2.5.3l.1-.1-.1-.1c0-.1-.1-.8-.2-1 .3.1.5.1.7-.2.3-.2.3-.4-.1-.7zm-.2.5c-.1.2-.3.2-.6 0-.1 0-.1-.1-.1-.1l.1-.1c.1-.1.2-.3.2-.3.1 0 .1.1.2.1.3.1.3.2.2.4zM18.6 41.4l-.1-.1c-.1 0-.3 0-.4-.1l-1.3 1.3h-.2v.1c.1 0 .2.1.3.1.1 0 .2.1.3.2l.1-.1-.1-.1.4-.4.6.3c0 .2 0 .4-.1.6h-.2l-.1.1c.1.1.3.1.4.2.1.1.3.1.4.2l.1-.1-.1-.1c0-.2 0-.7.1-1.1l-.1-1zm-.5.8l-.5-.2.5-.6v.8zM24.2 42.9c-.1-.1-.2-.3-.2-.5l-.2-.5c-.1-.2-.1-.3-.2-.5l.2-.1-.1-.1c-.1.1-.3.1-.4.2-.1.1-.3.1-.4.2l.1.1h.2c.1.1.2.3.2.5l.2.5c.1.2.1.3.2.5l-.2.1.1.1c.1-.1.3-.1.4-.2.1-.1.3-.1.4-.2l-.1-.1h-.2zM27.7 41c-.1-.1-.2-.3-.3-.4l-.3-.5c-.1-.2-.2-.3-.3-.5l.1-.1-.1-.1c-.1.1-.2.1-.3.2-.1.1-.2.1-.4.2.1.2.3 1.2.3 1.4-.2-.2-.9-.8-1.1-.9-.1.1-.2.1-.3.2-.1.1-.2.1-.4.2l.1.1.2-.1.1.2c.1.2.6 1 .7 1.2l-.1.1.1.1c.1-.1.2-.1.3-.2.1-.1.2-.1.3-.2l-.1-.1-.1.2c-.1-.1-.2-.3-.3-.4l-.2-.3c-.1-.2-.2-.4-.3-.5.7.6 1.1.9 1.3 1.1l.3-.2-.4-1.7c.1.1.2.2.3.5l.2.3c.1.2.2.3.2.5l-.1.1.1.1c.1-.1.2-.2.4-.2.1-.1.3-.1.4-.2l-.1-.1h-.2zM29.6 39.6l-.4-.4-.2-.3c-.1-.1-.2-.3-.3-.5 0-.1.1-.1.1-.2.2-.2.4-.1.5 0 .1.2.2.4 0 .5l-.1.1.1.2c.1 0 .2-.1.2-.2.4-.3.4-.8.2-1-.2-.3-.5-.3-.9 0-.1.1-.2.1-.3.2l-.3.3c-.1.1-.2.2-.3.2l.1.1.2-.1.4.4.3.4c.1.2.2.3.3.4l-.2.4.1.1c.1-.1.2-.2.4-.3.1-.1.2-.2.4-.3l-.1-.1-.2.1zM32.7 36.7c-.2-.1-.7-.3-1-.4L31 36h-.2c-.1.1-.1.2-.2.4.3.5.6 1.3.8 1.7l-.1.1.1.1c.1-.1.1-.2.2-.2l.3-.3-.1-.1-.1.1-.3-.5.4-.5c.2.1.4.2.5.3l-.1.1.1.1.3-.3.3-.3-.1-.1-.1.1zm-1.5.4l-.4-.7.7.3-.3.4zM34.9 34c-.1 0-.8 0-1 .1.1-.3.1-.5-.1-.7-.2-.2-.5-.2-.8.2-.1.1-.2.2-.2.3-.1.1-.2.2-.2.3-.1.1-.1.2-.2.3l.1.1.1-.1c.1.1.3.2.4.3l.4.3c.2.1.3.2.4.3l-.1.2.1.1c.1-.1.2-.2.3-.4.1-.1.2-.2.3-.4l-.1-.1-.2.2c-.1-.1-.3-.2-.4-.3l-.1-.1.1-.1h1.1c.1-.2.2-.3.3-.5h-.2zm-1.5.3l-.1.1-.1-.1c-.1-.1-.2-.2-.3-.2 0-.1.1-.1.1-.2.1-.2.3-.2.4-.1.2.1.2.3 0 .5zM36 30.6c-.6-.3-1.1-.1-1.4.5-.4.6-.2 1.2.3 1.5.5.3 1.1.1 1.4-.5.4-.6.2-1.2-.3-1.5zm.1 1.3c-.2.3-.6.4-.9.1-.4-.2-.5-.6-.3-.9.2-.3.6-.3.9-.1.3.2.5.6.3.9zM20.9 42.6c-.2 0-.4.2-.4.4s.2.4.4.4.4-.2.4-.4-.2-.4-.4-.4zM4.9 29c.2 0 .4-.2.4-.4s-.2-.4-.4-.4-.4.2-.4.4.2.4.4.4zM37 29c.2 0 .4-.2.4-.4s-.2-.4-.4-.4-.4.2-.4.4c-.1.2.1.4.4.4z"/>
</svg>